<svg width="336" height="282" viewBox="0 0 336 282" fill="none" xmlns="http://www.w3.org/2000/svg">
<path d="M202.114 123.057L196.156 117.621V84.3142L196.433 84.1618L202.693 80.7701L201.015 74.133L196.156 75.435V51.3539L196.974 51.7C198.475 52.3351 200.062 52.6559 201.692 52.6559C201.755 52.6559 201.818 52.6527 201.881 52.6464C201.947 52.6432 202.013 52.6368 202.079 52.6336L202.687 52.6146V52.64C208.56 52.3542 213.338 47.8225 213.92 41.8713L213.954 41.5061L214.294 41.3759C218.874 39.607 221.949 35.1039 221.949 30.1657C221.949 25.2276 218.874 20.7245 214.294 18.9556L213.954 18.8254L213.92 18.4602C213.319 12.3121 208.236 7.67879 202.098 7.67879C201.667 7.67879 201.232 7.70102 200.801 7.74865L200.364 7.79628L200.194 7.38345C198.353 2.89939 194.04 0 189.209 0C184.378 0 180.066 2.89939 178.225 7.38345L178.055 7.79628L177.617 7.74865C177.186 7.70102 176.752 7.67879 176.32 7.67879C170.183 7.67879 165.1 12.3121 164.498 18.4602L164.464 18.8254L164.124 18.9556C159.544 20.7245 156.469 25.2276 156.469 30.1657C156.469 35.1039 159.544 39.607 164.124 41.3759L164.464 41.5061L164.498 41.8713C165.1 48.0194 170.183 52.6527 176.32 52.6527H182.319V55.3234L176.018 57.5845L175.392 62.0305L163.457 68.458L159.724 61.3032L164.631 50.0836L159.271 43.9005L153.146 48.3941L148.749 47.2795L142.737 51.3539L138.686 50.4932L135.186 56.3301L139.665 60.1822L139.281 73.2501L133.682 93.603L133.509 93.7269C131.841 94.9082 130.604 96.404 129.829 98.1697C127.248 104.057 129.895 108.341 130.77 109.516L131.095 109.955L121.769 118.357L125.517 123.057H112.462V124.556H223.554V123.057H202.114ZM142.262 123.057H137.72L135.429 120.422L143.467 115.934L142.262 123.057ZM158.049 123.057H143.766L146.643 106.001L145.179 105.75L143.782 114.042L133.093 120.009L135.743 123.057H127.425L123.808 118.526L133.273 109.993L132.671 109.431C132.492 109.262 128.341 105.267 131.186 98.7794C133.345 93.8571 139.464 92.3391 142.621 92.9965L143.099 91.5674C141.255 91.1228 138.825 91.3261 136.59 92.1327L135.52 92.5201L140.666 73.8154L149.048 69.5981L148.384 68.258L140.779 72.0847L141.166 59.5153L137.109 56.0221L139.41 52.1859L143.042 52.9576L149.026 48.9022L153.457 50.0232L159.047 45.9234L162.89 50.3567L158.075 61.3636L162.837 70.4936L176.755 62.9991L177.359 58.6992L182.316 56.9208V65.4824L165.144 80.2747L158.153 101.644L157.495 100.497C156.932 99.513 156.255 98.6174 155.481 97.8267L154.474 98.9286C158.754 103.343 158.95 110.482 154.817 115.121L152.721 117.478H158.049V123.057ZM159.535 123.057V115.972H156.117L156.794 115.029C159 111.952 159.787 108.027 158.95 104.257L158.915 104.099L166.425 81.1385L182.319 67.4482V117.621L176.361 123.057H159.535ZM178.571 123.057L183.802 118.288V42.9224H182.316V51.157H176.317C170.636 51.157 166.069 46.6634 165.921 40.9313L165.909 40.3882L165.392 40.2326C161.011 38.9179 157.949 34.78 157.949 30.1689C157.949 25.5578 161.008 21.4199 165.392 20.1052L165.909 19.9496L165.921 19.4066C166.069 13.6713 170.636 9.18088 176.317 9.18088C177.019 9.18088 177.721 9.25074 178.407 9.39365L179.065 9.52703L179.266 8.87919C180.626 4.46818 184.62 1.5021 189.206 1.5021C193.792 1.5021 197.786 4.465 199.146 8.87919L199.344 9.52703L200.002 9.39048C200.688 9.25074 201.39 9.17771 202.092 9.17771C207.773 9.17771 212.34 13.6713 212.488 19.4034L212.5 19.9464L213.016 20.102C217.398 21.4168 220.46 25.5547 220.46 30.1657C220.46 34.7768 217.401 38.9147 213.016 40.2295L212.5 40.3851L212.488 40.9186H212.406C212.101 46.6157 207.408 51.1538 201.689 51.1538C199.061 51.1538 196.568 50.2043 194.61 48.464L193.572 49.5342C193.826 49.7565 194.107 49.9851 194.434 50.2265L194.673 50.4043V75.832L189.508 77.2166L189.889 78.6647L199.948 75.9685L200.968 80.0016L190.707 85.5622L191.409 86.8833L194.673 85.1145V85.1303V118.284L199.904 123.054H178.571V123.057Z" fill="#FF4242"/>
<path d="M69.7475 159.254C69.0394 158.733 68.2273 157.901 67.3177 156.755C66.4522 155.665 65.382 154.17 64.1167 152.277C64.9099 151.867 65.5551 151.318 66.0493 150.619C66.5655 149.889 66.8236 149.066 66.8236 148.155C66.8236 147.18 66.4364 146.411 65.6621 145.849C64.8879 145.287 63.8083 145.008 62.4234 145.008C62.052 145.008 61.7184 145.017 61.4194 145.033C61.1204 145.049 60.8686 145.065 60.6577 145.081C60.0282 145.128 59.4491 145.154 58.9172 145.154C58.4828 145.154 57.91 145.138 57.2018 145.106L55.946 145.081C55.9145 145.081 55.8987 145.128 55.8987 145.227C55.8987 145.325 55.9145 145.373 55.946 145.373C56.4779 145.373 56.8713 145.417 57.1294 145.506C57.3875 145.595 57.5606 145.754 57.6487 145.983C57.7369 146.211 57.7809 146.567 57.7809 147.056V158.349C57.7809 158.838 57.7337 159.2 57.6361 159.435C57.5386 159.67 57.3655 159.829 57.1168 159.911C56.8682 159.994 56.4684 160.032 55.9208 160.032C55.8736 160.032 55.8484 160.079 55.8484 160.178C55.8484 160.276 55.8736 160.324 55.9208 160.324C56.4527 160.324 56.8713 160.314 57.1766 160.299L58.9172 160.273L60.6829 160.299C60.9882 160.314 61.4068 160.324 61.9387 160.324C61.9702 160.324 61.9859 160.276 61.9859 160.178C61.9859 160.079 61.9702 160.032 61.9387 160.032C61.3753 160.032 60.9661 159.991 60.7175 159.911C60.4688 159.829 60.302 159.676 60.2233 159.447C60.1415 159.219 60.1037 158.854 60.1037 158.349V152.909C60.5884 152.941 60.9976 152.956 61.3375 152.956C61.6271 152.956 61.9104 152.931 62.1905 152.89C63.5848 155.17 64.784 156.97 65.7754 158.272C66.8141 159.638 67.5286 160.321 67.9157 160.321H71.8091C71.8406 160.321 71.8563 160.273 71.8563 160.175C71.8563 160.076 71.8406 160.029 71.8091 160.029C71.1418 160.035 70.4557 159.775 69.7475 159.254ZM60.1006 152.255V147.107C60.1006 146.488 60.2296 146.062 60.4877 145.827C60.7458 145.592 61.1959 145.475 61.8411 145.475C62.6784 145.475 63.3204 145.735 63.7642 146.256C64.208 146.777 64.4283 147.694 64.4283 149.012C64.4283 150.184 64.2017 151.032 63.7516 151.562C63.3016 152.089 62.5493 152.356 61.5044 152.356C60.9567 152.353 60.4877 152.318 60.1006 152.255Z" fill="white"/>
<path d="M90.7567 156.497C90.6749 156.497 90.6371 156.513 90.6371 156.545C90.058 158.644 88.6857 159.692 86.5266 159.692H85.3431C84.8269 159.692 84.4681 159.587 84.2667 159.374C84.0653 159.162 83.9645 158.79 83.9645 158.253V152.718H86.2622C88.0657 152.718 88.969 153.417 88.969 154.817C88.969 154.849 89.0162 154.865 89.1138 154.865C89.2114 154.865 89.2586 154.849 89.2586 154.817C89.2586 154.493 89.2428 154.071 89.2114 153.55L89.1862 152.404L89.2114 150.282C89.2114 150.235 89.1673 150.209 89.0791 150.209C88.991 150.209 88.947 150.235 88.947 150.282C88.947 151.486 88.0594 152.086 86.2874 152.086H83.9677V147.11C83.9677 146.605 84.0841 146.249 84.317 146.037C84.55 145.824 84.9654 145.719 85.5634 145.719H86.5549C88.393 145.719 89.5041 146.637 89.8912 148.475C89.9069 148.523 89.9604 148.545 90.0486 148.536C90.1367 148.526 90.1808 148.507 90.1808 148.475L90.1336 145.303C90.1336 145.157 90.0517 145.084 89.8912 145.084H79.8351C79.7879 145.084 79.7627 145.132 79.7627 145.23C79.7627 145.328 79.7879 145.376 79.8351 145.376C80.367 145.376 80.7604 145.42 81.0185 145.509C81.2766 145.598 81.4497 145.757 81.5379 145.986C81.626 146.214 81.6701 146.57 81.6701 147.059V158.352C81.6701 158.841 81.626 159.203 81.5379 159.438C81.4497 159.673 81.2798 159.832 81.0311 159.914C80.7825 159.997 80.3827 160.035 79.8351 160.035C79.7879 160.035 79.7627 160.083 79.7627 160.181C79.7627 160.279 79.7879 160.327 79.8351 160.327H90.3287C90.4735 160.327 90.571 160.299 90.6183 160.241C90.6655 160.184 90.6906 160.092 90.6906 159.962C90.6906 158.936 90.7725 157.809 90.933 156.57C90.9236 156.523 90.8669 156.497 90.7567 156.497Z" fill="white"/>
<path d="M108.537 153.036C108.061 152.661 107.413 152.213 106.592 151.696C105.833 151.207 105.238 150.797 104.804 150.463C104.37 150.13 104.001 149.733 103.705 149.269C103.406 148.806 103.258 148.272 103.258 147.672C103.258 146.958 103.473 146.383 103.901 145.954C104.329 145.522 104.905 145.306 105.629 145.306C106.708 145.306 107.517 145.71 108.058 146.513C108.597 147.32 109.028 148.215 109.352 149.209C109.383 149.257 109.437 149.273 109.509 149.257C109.582 149.241 109.619 149.2 109.619 149.136L109.572 145.843C109.572 145.63 109.453 145.478 109.21 145.379C108.823 145.217 108.357 145.084 107.81 144.976C107.262 144.871 106.721 144.817 106.189 144.817C105.367 144.817 104.58 144.96 103.831 145.243C103.082 145.528 102.475 145.964 102.006 146.548C101.537 147.132 101.304 147.85 101.304 148.695C101.304 149.377 101.458 149.974 101.763 150.489C102.069 151 102.44 151.432 102.874 151.781C103.309 152.131 103.913 152.559 104.687 153.061C105.477 153.582 106.101 154.02 106.56 154.379C107.02 154.738 107.407 155.186 107.722 155.719C108.036 156.256 108.194 156.882 108.194 157.596C108.194 158.492 107.961 159.13 107.492 159.511C107.023 159.892 106.437 160.086 105.726 160.086C104.678 160.086 103.812 159.654 103.126 158.793C102.44 157.933 101.833 156.834 101.301 155.5C101.285 155.437 101.235 155.408 101.156 155.414C101.074 155.424 101.036 155.459 101.036 155.526V155.551L101.181 159.235C101.197 159.447 101.279 159.6 101.424 159.698C101.795 159.959 102.339 160.178 103.054 160.356C103.772 160.534 104.467 160.626 105.144 160.626C106.142 160.626 107.032 160.441 107.816 160.076C108.597 159.711 109.201 159.203 109.629 158.552C110.057 157.901 110.271 157.161 110.271 156.332C110.271 155.602 110.101 154.963 109.764 154.417C109.418 153.868 109.012 153.411 108.537 153.036Z" fill="white"/>
<path d="M124.176 146.021C124.264 145.786 124.438 145.617 124.696 145.519C124.954 145.42 125.347 145.373 125.879 145.373C125.926 145.373 125.952 145.325 125.952 145.227C125.952 145.128 125.926 145.081 125.879 145.081L124.671 145.106C123.962 145.138 123.358 145.154 122.858 145.154C122.407 145.154 121.825 145.138 121.117 145.106L119.861 145.081C119.814 145.081 119.789 145.128 119.789 145.227C119.789 145.325 119.814 145.373 119.861 145.373C120.409 145.373 120.809 145.417 121.057 145.506C121.306 145.595 121.479 145.754 121.577 145.983C121.674 146.211 121.721 146.567 121.721 147.056V158.349C121.721 158.838 121.674 159.2 121.577 159.435C121.479 159.67 121.306 159.829 121.057 159.911C120.809 159.994 120.409 160.032 119.861 160.032C119.814 160.032 119.789 160.079 119.789 160.178C119.789 160.276 119.814 160.324 119.861 160.324C120.393 160.324 120.812 160.314 121.117 160.299L122.858 160.273L124.645 160.299C124.951 160.314 125.363 160.324 125.879 160.324C125.926 160.324 125.952 160.276 125.952 160.178C125.952 160.079 125.926 160.032 125.879 160.032C125.331 160.032 124.932 159.99 124.683 159.911C124.434 159.829 124.264 159.676 124.176 159.447C124.088 159.219 124.044 158.854 124.044 158.349V147.104C124.044 146.621 124.088 146.259 124.176 146.021Z" fill="white"/>
<path d="M145.973 146.011C144.698 145.36 143.241 145.036 141.598 145.036C141.324 145.036 140.782 145.052 139.977 145.084C139.3 145.132 138.648 145.157 138.019 145.157C137.6 145.157 137.037 145.141 136.326 145.109L135.045 145.084C135.013 145.084 134.997 145.132 134.997 145.23C134.997 145.328 135.013 145.376 135.045 145.376C135.576 145.376 135.97 145.421 136.228 145.509C136.486 145.598 136.659 145.757 136.747 145.986C136.835 146.214 136.88 146.57 136.88 147.059V158.352C136.88 158.841 136.832 159.203 136.735 159.438C136.637 159.673 136.464 159.832 136.215 159.914C135.967 159.997 135.567 160.035 135.019 160.035C134.988 160.035 134.972 160.083 134.972 160.181C134.972 160.279 134.988 160.327 135.019 160.327C135.567 160.327 135.995 160.318 136.3 160.302L138.016 160.276C138.466 160.276 138.878 160.286 139.25 160.302C139.621 160.318 139.926 160.333 140.169 160.349C140.845 160.397 141.434 160.422 141.934 160.422C143.401 160.422 144.748 160.092 145.973 159.435C147.197 158.777 148.173 157.841 148.897 156.631C149.62 155.421 149.986 154.027 149.986 152.448C149.986 151.051 149.636 149.79 148.934 148.666C148.232 147.545 147.244 146.659 145.973 146.011ZM146.674 156.755C146.19 157.802 145.519 158.596 144.657 159.133C143.794 159.67 142.806 159.937 141.695 159.937C140.713 159.937 140.046 159.794 139.7 159.511C139.353 159.225 139.18 158.752 139.18 158.085V147.11C139.18 146.656 139.268 146.316 139.445 146.097C139.621 145.878 139.892 145.729 140.254 145.646C140.616 145.563 141.144 145.525 141.837 145.525C142.948 145.525 143.924 145.856 144.761 146.513C145.598 147.17 146.246 148.066 146.706 149.196C147.165 150.327 147.395 151.591 147.395 152.988C147.398 154.449 147.156 155.707 146.674 156.755Z" fill="white"/>
<path d="M170.365 156.497C170.283 156.497 170.246 156.513 170.246 156.545C169.667 158.644 168.294 159.692 166.135 159.692H164.952C164.435 159.692 164.077 159.587 163.875 159.374C163.674 159.162 163.573 158.79 163.573 158.253V152.718H165.871C167.674 152.718 168.578 153.417 168.578 154.817C168.578 154.849 168.625 154.865 168.722 154.865C168.82 154.865 168.867 154.849 168.867 154.817C168.867 154.493 168.851 154.071 168.82 153.55L168.795 152.404L168.82 150.282C168.82 150.235 168.776 150.209 168.688 150.209C168.6 150.209 168.555 150.235 168.555 150.282C168.555 151.486 167.668 152.086 165.896 152.086H163.576V147.11C163.576 146.605 163.693 146.249 163.926 146.037C164.159 145.824 164.574 145.719 165.172 145.719H166.163C168.002 145.719 169.113 146.637 169.5 148.475C169.515 148.523 169.569 148.545 169.657 148.536C169.745 148.526 169.789 148.507 169.789 148.475L169.742 145.303C169.742 145.157 169.66 145.084 169.5 145.084H159.444C159.396 145.084 159.371 145.132 159.371 145.23C159.371 145.328 159.396 145.376 159.444 145.376C159.976 145.376 160.369 145.42 160.627 145.509C160.885 145.598 161.058 145.757 161.146 145.986C161.235 146.214 161.279 146.57 161.279 147.059V158.352C161.279 158.841 161.235 159.203 161.146 159.438C161.058 159.673 160.888 159.832 160.64 159.914C160.391 159.997 159.991 160.035 159.444 160.035C159.396 160.035 159.371 160.083 159.371 160.181C159.371 160.279 159.396 160.327 159.444 160.327H169.937C170.082 160.327 170.18 160.299 170.227 160.241C170.274 160.184 170.299 160.092 170.299 159.962C170.299 158.936 170.378 157.809 170.542 156.57C170.535 156.523 170.479 156.497 170.365 156.497Z" fill="white"/>
<path d="M196.209 145.084L195.192 145.109C194.613 145.141 194.169 145.157 193.864 145.157C193.524 145.157 193.099 145.141 192.583 145.109L191.592 145.084C191.56 145.084 191.544 145.132 191.544 145.23C191.544 145.328 191.56 145.376 191.592 145.376C192.237 145.376 192.725 145.608 193.055 146.071C193.386 146.535 193.549 147.199 193.549 148.059V156.685L184.847 146.351C184.718 146.205 184.516 145.944 184.242 145.57C184.113 145.376 184.016 145.246 183.953 145.179C183.89 145.116 183.792 145.081 183.663 145.081C183.405 145.081 183.179 145.09 182.987 145.106L181.438 145.132C181.051 145.132 180.761 145.125 180.566 145.106L179.6 145.081C179.553 145.081 179.527 145.128 179.527 145.227C179.527 145.325 179.553 145.373 179.6 145.373C180.003 145.373 180.412 145.5 180.834 145.751C181.158 145.944 181.52 146.259 181.923 146.681V157.374C181.923 158.234 181.734 158.895 181.353 159.349C180.975 159.803 180.437 160.032 179.745 160.032C179.697 160.032 179.672 160.079 179.672 160.178C179.672 160.276 179.697 160.324 179.745 160.324C180.229 160.324 180.598 160.314 180.856 160.299L182.281 160.273L183.563 160.299C183.789 160.314 184.11 160.324 184.529 160.324C184.576 160.324 184.601 160.276 184.601 160.178C184.601 160.079 184.576 160.032 184.529 160.032C183.884 160.032 183.396 159.803 183.065 159.349C182.735 158.895 182.571 158.234 182.571 157.374V147.421L193.908 160.74C193.94 160.772 193.996 160.781 194.078 160.765C194.16 160.749 194.198 160.718 194.198 160.667V148.056C194.198 147.196 194.371 146.532 194.717 146.068C195.063 145.605 195.557 145.373 196.203 145.373C196.25 145.373 196.275 145.325 196.275 145.227C196.281 145.132 196.256 145.084 196.209 145.084Z" fill="white"/>
<path d="M219.104 156.18C219.022 156.164 218.975 156.18 218.959 156.227C218.364 157.593 217.675 158.59 216.891 159.216C216.11 159.841 215.128 160.156 213.954 160.156C212.762 160.156 211.688 159.838 210.738 159.203C209.787 158.568 209.038 157.679 208.49 156.532C207.943 155.386 207.669 154.081 207.669 152.617C207.669 151.137 207.927 149.841 208.443 148.726C208.959 147.612 209.677 146.757 210.596 146.167C211.515 145.573 212.57 145.278 213.762 145.278C214.987 145.278 216.016 145.627 216.844 146.326C217.675 147.024 218.298 148.04 218.716 149.374C218.748 149.441 218.805 149.463 218.886 149.447C218.968 149.431 219.006 149.4 219.006 149.349L218.716 146.129C218.685 145.935 218.65 145.808 218.619 145.751C218.587 145.694 218.506 145.633 218.377 145.567C217.281 145.062 215.84 144.811 214.049 144.811C212.34 144.811 210.801 145.147 209.432 145.824C208.062 146.5 206.986 147.437 206.205 148.641C205.422 149.844 205.031 151.21 205.031 152.737C205.031 154.281 205.409 155.653 206.168 156.847C206.926 158.041 207.981 158.968 209.334 159.628C210.687 160.286 212.22 160.616 213.926 160.616C215.569 160.616 217.118 160.314 218.569 159.714C218.698 159.651 218.779 159.587 218.811 159.53C218.842 159.473 218.874 159.346 218.908 159.152L219.223 156.25C219.223 156.221 219.182 156.199 219.104 156.18Z" fill="white"/>
<path d="M232.99 146.021C233.078 145.786 233.251 145.617 233.509 145.519C233.767 145.42 234.161 145.373 234.693 145.373C234.74 145.373 234.765 145.325 234.765 145.227C234.765 145.128 234.74 145.081 234.693 145.081L233.484 145.106C232.776 145.138 232.172 145.154 231.671 145.154C231.221 145.154 230.639 145.138 229.931 145.106L228.675 145.081C228.628 145.081 228.603 145.128 228.603 145.227C228.603 145.325 228.628 145.373 228.675 145.373C229.223 145.373 229.622 145.417 229.871 145.506C230.12 145.595 230.293 145.754 230.39 145.983C230.488 146.211 230.535 146.567 230.535 147.056V158.349C230.535 158.838 230.488 159.2 230.39 159.435C230.293 159.67 230.12 159.829 229.871 159.911C229.622 159.994 229.223 160.032 228.675 160.032C228.628 160.032 228.603 160.079 228.603 160.178C228.603 160.276 228.628 160.324 228.675 160.324C229.207 160.324 229.625 160.314 229.931 160.299L231.671 160.273L233.459 160.299C233.764 160.314 234.177 160.324 234.693 160.324C234.74 160.324 234.765 160.276 234.765 160.178C234.765 160.079 234.74 160.032 234.693 160.032C234.145 160.032 233.745 159.99 233.497 159.911C233.248 159.829 233.078 159.676 232.99 159.447C232.902 159.219 232.858 158.854 232.858 158.349V147.104C232.858 146.621 232.902 146.259 232.99 146.021Z" fill="white"/>
<path d="M260.247 160.035C259.797 160.035 259.382 159.819 259.001 159.387C258.623 158.955 258.157 158.155 257.61 156.983L251.686 144.935C251.67 144.887 251.604 144.862 251.494 144.862C251.381 144.862 251.308 144.887 251.277 144.935L246.08 156.742C245.678 157.653 245.331 158.339 245.042 158.803C244.752 159.266 244.453 159.587 244.148 159.765C243.843 159.943 243.462 160.032 243.012 160.032C242.93 160.032 242.892 160.079 242.892 160.178C242.892 160.276 242.933 160.324 243.012 160.324C243.348 160.324 243.777 160.308 244.293 160.276C244.872 160.245 245.382 160.229 245.816 160.229C246.266 160.229 246.798 160.245 247.412 160.276C247.959 160.308 248.378 160.324 248.668 160.324C248.749 160.324 248.787 160.276 248.787 160.178C248.787 160.079 248.746 160.032 248.668 160.032C247.944 160.032 247.377 159.886 246.974 159.594C246.571 159.301 246.37 158.869 246.37 158.301C246.37 157.91 246.474 157.472 246.685 156.983L247.843 154.347H253.7L255.532 158.104C255.806 158.688 255.945 159.104 255.945 159.349C255.945 159.594 255.841 159.768 255.63 159.873C255.419 159.978 255.073 160.032 254.591 160.032C254.525 160.032 254.494 160.079 254.494 160.178C254.494 160.276 254.525 160.324 254.591 160.324C254.896 160.324 255.325 160.308 255.872 160.276C256.42 160.245 256.895 160.229 257.298 160.229C257.603 160.229 258.094 160.245 258.774 160.276C259.451 160.308 259.942 160.324 260.25 160.324C260.313 160.324 260.348 160.276 260.348 160.178C260.348 160.079 260.313 160.035 260.247 160.035ZM248.114 153.741L250.625 148.034L253.408 153.741H248.114Z" fill="white"/>
<path d="M280.108 156.119C280.067 156.094 280.032 156.081 279.997 156.081C279.931 156.081 279.9 156.097 279.9 156.129C279.642 157.218 279.119 158.085 278.329 158.727C277.539 159.368 276.573 159.689 275.427 159.689H273.976C273.507 159.689 273.171 159.657 272.96 159.59C272.749 159.527 272.604 159.39 272.525 159.187C272.443 158.984 272.406 158.669 272.406 158.247V147.075C272.406 146.586 272.45 146.224 272.538 145.989C272.626 145.754 272.799 145.592 273.057 145.5C273.315 145.411 273.709 145.366 274.241 145.366C274.288 145.366 274.313 145.319 274.313 145.22C274.313 145.122 274.288 145.074 274.241 145.074L273.032 145.1C272.324 145.131 271.726 145.147 271.244 145.147C270.794 145.147 270.212 145.131 269.504 145.1L268.27 145.074C268.239 145.074 268.223 145.122 268.223 145.22C268.223 145.319 268.239 145.366 268.27 145.366C268.802 145.366 269.195 145.411 269.453 145.5C269.712 145.589 269.885 145.748 269.973 145.976C270.061 146.205 270.105 146.561 270.105 147.05V158.342C270.105 158.831 270.061 159.193 269.973 159.428C269.885 159.663 269.715 159.822 269.466 159.905C269.217 159.987 268.818 160.025 268.27 160.025C268.239 160.025 268.223 160.073 268.223 160.171C268.223 160.27 268.239 160.318 268.27 160.318H279.585C279.73 160.318 279.827 160.289 279.875 160.232C279.922 160.175 279.947 160.083 279.947 159.952C279.947 158.927 280.019 157.669 280.164 156.17C280.17 156.164 280.148 156.145 280.108 156.119Z" fill="white"/>
<path d="M308.284 183.195H279.387H277.492H250.04V184.107C253.741 184.107 258.979 185.656 258.979 190.849V239.319C258.979 244.511 253.741 246.061 250.04 246.061H249.14C235.864 246.061 237.22 220.004 222.229 216.724C234.872 215.085 240.018 207.159 240.018 200.052C240.018 186.022 223.312 183.195 216.992 183.195H188.095V184.107C191.796 184.107 197.034 185.656 197.034 190.849V217.248C194.103 217.747 190.663 218.569 186.93 219.896C187.097 218.34 187.192 216.737 187.192 215.082C187.192 195.949 175.634 183.195 159.469 183.195H130.572V184.107C134.273 184.107 139.511 185.656 139.511 190.849V239.319C139.511 244.511 134.273 246.061 130.572 246.061H130.122C126.509 246.061 120.73 244.784 118.744 239.776L99.7805 183.198H95.7172L85.6201 221.021C74.5663 218.61 66.0461 220.474 60.3209 222.926V190.852C60.3209 185.66 65.5583 184.11 69.2597 184.11V183.198H50.7495L34.2254 235.676L16.7067 183.198H0V184.11C3.7014 184.11 8.93876 185.66 8.93876 190.852V239.319C8.93876 244.511 3.7014 246.061 0 246.061V246.972H18.7809V246.061C15.0794 246.061 9.84209 244.511 9.84209 239.319V191.303L28.4435 246.969H38.0149L34.8549 237.493L50.7464 186.927V229.077C44.6498 234.632 40.8539 242.123 40.8539 249.297C40.8539 267.557 58.1114 281.921 80.1373 282C80.2569 282 80.3734 282 80.493 282C107.334 282 130.264 271.101 153.678 246.966H159.463C173.906 246.966 184.664 236.775 186.792 220.957C190.575 219.576 194.062 218.728 197.027 218.217V239.313C197.027 244.505 191.79 246.055 188.089 246.055V246.966H215.538V246.055C211.836 246.055 206.599 244.505 206.599 239.313V216.991H214.908C226.648 216.991 224.933 246.966 232.427 246.966H249.133H250.034H277.486H279.38H308.277C324.439 246.966 336 234.209 336 215.076C336.006 195.949 324.449 183.195 308.284 183.195ZM149.089 184.107H159.472C170.309 184.107 177.261 196.498 177.261 215.082C177.261 218.518 177.022 221.742 176.566 224.717C171.24 227.829 165.764 232.104 160.633 237.988C158.156 240.827 155.692 243.517 153.234 246.061H149.089V184.107ZM93.92 194.129L104.517 225.794L104.521 225.803L105.553 228.934L105.644 229.214C98.6915 225.108 92.3557 222.615 86.6714 221.252L93.92 194.129ZM50.759 230.395V239.319C50.759 244.387 45.7734 245.981 42.0909 246.055C42.9848 240.437 46.1291 234.838 50.759 230.395ZM80.5024 281.038C80.3859 281.038 80.2695 281.038 80.153 281.038C58.6591 280.962 41.8234 267.02 41.8234 249.3C41.8234 248.528 41.8863 247.75 41.9744 246.972H69.2691H69.8074V246.061H69.2691C65.5677 246.061 60.3304 244.511 60.3304 239.319V223.977C65.9077 221.513 74.3365 219.557 85.3778 221.954L80.644 239.681C79.1081 244.235 73.4206 246.058 69.8074 246.058V246.969H88.7708V246.058C85.2488 246.058 80.9147 244.419 81.7268 239.954L83.76 232.104L84.3675 229.84L85.3274 226.273L86.4196 222.18C92.2802 223.577 98.8583 226.216 106.107 230.618L106.516 231.856L109.088 239.494C110.262 243.412 106.378 246.055 102.676 246.055V246.966H130.068H130.128H130.578H152.34C129.345 270.431 106.812 281.038 80.5024 281.038ZM159.475 246.061H154.565C156.822 243.705 159.085 241.234 161.354 238.627C166.189 233.082 171.335 228.992 176.358 225.962C174.152 238.344 168.024 246.061 159.475 246.061ZM217.445 216.086H206.608V184.107H216.992C227.828 184.107 230.085 192.306 230.085 200.052C230.088 205.79 228.282 216.086 217.445 216.086ZM288.329 239.319C288.329 244.511 283.091 246.061 279.39 246.061H277.495C273.794 246.061 268.556 244.511 268.556 239.319V190.849C268.556 185.656 273.794 184.107 277.495 184.107H279.39C283.091 184.107 288.329 185.656 288.329 190.849V239.319ZM308.284 246.061H297.9V184.107H308.284C319.12 184.107 326.073 196.498 326.073 215.082C326.073 233.666 319.12 246.061 308.284 246.061Z" fill="#FF4242"/>
</svg>
